<svg xmlns="http://www.w3.org/2000/svg" width="1200" height="1110" viewBox="0 0 1200 1110">
<rect width="1200" height="1110" fill="#142027"/>
<text x="64" y="50" fill="#f0eee7" font-family="Arial" font-size="30" font-weight="bold">STAGE 0 · CITY / FOREST</text>
<text x="64" y="79" fill="#a7c0bd" font-family="Arial" font-size="16">24 × 24 · 64-unit lanes and buildings · small props about 21 units</text>
<rect x="64" y="112" width="912" height="912" fill="#456d4e"/>
<rect x="64.00" y="112.00" width="380.00" height="912.00" fill="#536067"/>
<rect x="444.00" y="112.00" width="152.00" height="912.00" fill="#647066"/>
<rect x="178.00" y="112.00" width="38.00" height="912.00" fill="#303a40"/>
<rect x="330.00" y="112.00" width="38.00" height="912.00" fill="#303a40"/>
<rect x="482.00" y="112.00" width="38.00" height="912.00" fill="#303a40"/>
<rect x="672.00" y="112.00" width="38.00" height="912.00" fill="#826e4e"/>
<rect x="824.00" y="112.00" width="38.00" height="912.00" fill="#826e4e"/>
<rect x="64.00" y="264.00" width="532.00" height="38.00" fill="#303a40"/>
<rect x="596.00" y="264.00" width="380.00" height="38.00" fill="#826e4e"/>
<rect x="64.00" y="416.00" width="532.00" height="38.00" fill="#303a40"/>
<rect x="596.00" y="416.00" width="380.00" height="38.00" fill="#826e4e"/>
<rect x="64.00" y="568.00" width="532.00" height="38.00" fill="#303a40"/>
<rect x="596.00" y="568.00" width="380.00" height="38.00" fill="#826e4e"/>
<rect x="64.00" y="720.00" width="532.00" height="38.00" fill="#303a40"/>
<rect x="596.00" y="720.00" width="380.00" height="38.00" fill="#826e4e"/>
<rect x="64.00" y="872.00" width="532.00" height="38.00" fill="#303a40"/>
<rect x="596.00" y="872.00" width="380.00" height="38.00" fill="#826e4e"/>
<rect x="710.00" y="606.00" width="114.00" height="114.00" fill="#658e5b"/>
<path d="M64 112V1024 M64 112H976" stroke="#fff" stroke-opacity=".055"/>
<path d="M102 112V1024 M64 150H976" stroke="#fff" stroke-opacity=".055"/>
<path d="M140 112V1024 M64 188H976" stroke="#fff" stroke-opacity=".055"/>
<path d="M178 112V1024 M64 226H976" stroke="#fff" stroke-opacity=".055"/>
<path d="M216 112V1024 M64 264H976" stroke="#fff" stroke-opacity=".055"/>
<path d="M254 112V1024 M64 302H976" stroke="#fff" stroke-opacity=".055"/>
<path d="M292 112V1024 M64 340H976" stroke="#fff" stroke-opacity=".055"/>
<path d="M330 112V1024 M64 378H976" stroke="#fff" stroke-opacity=".055"/>
<path d="M368 112V1024 M64 416H976" stroke="#fff" stroke-opacity=".055"/>
<path d="M406 112V1024 M64 454H976" stroke="#fff" stroke-opacity=".055"/>
<path d="M444 112V1024 M64 492H976" stroke="#fff" stroke-opacity=".055"/>
<path d="M482 112V1024 M64 530H976" stroke="#fff" stroke-opacity=".055"/>
<path d="M520 112V1024 M64 568H976" stroke="#fff" stroke-opacity=".055"/>
<path d="M558 112V1024 M64 606H976" stroke="#fff" stroke-opacity=".055"/>
<path d="M596 112V1024 M64 644H976" stroke="#fff" stroke-opacity=".055"/>
<path d="M634 112V1024 M64 682H976" stroke="#fff" stroke-opacity=".055"/>
<path d="M672 112V1024 M64 720H976" stroke="#fff" stroke-opacity=".055"/>
<path d="M710 112V1024 M64 758H976" stroke="#fff" stroke-opacity=".055"/>
<path d="M748 112V1024 M64 796H976" stroke="#fff" stroke-opacity=".055"/>
<path d="M786 112V1024 M64 834H976" stroke="#fff" stroke-opacity=".055"/>
<path d="M824 112V1024 M64 872H976" stroke="#fff" stroke-opacity=".055"/>
<path d="M862 112V1024 M64 910H976" stroke="#fff" stroke-opacity=".055"/>
<path d="M900 112V1024 M64 948H976" stroke="#fff" stroke-opacity=".055"/>
<path d="M938 112V1024 M64 986H976" stroke="#fff" stroke-opacity=".055"/>
<path d="M976 112V1024 M64 1024H976" stroke="#fff" stroke-opacity=".055"/>
<rect x="64.00" y="340.00" width="38.00" height="76.00" fill="#aa6040"/>
<rect x="216.00" y="340.00" width="38.00" height="76.00" fill="#aa6040"/>
<rect x="368.00" y="340.00" width="38.00" height="76.00" fill="#aa6040"/>
<rect x="64.00" y="492.00" width="38.00" height="76.00" fill="#aa6040"/>
<rect x="216.00" y="492.00" width="38.00" height="76.00" fill="#aa6040"/>
<rect x="368.00" y="492.00" width="38.00" height="76.00" fill="#aa6040"/>
<rect x="64.00" y="644.00" width="38.00" height="76.00" fill="#aa6040"/>
<rect x="216.00" y="644.00" width="38.00" height="76.00" fill="#aa6040"/>
<rect x="368.00" y="644.00" width="38.00" height="76.00" fill="#aa6040"/>
<rect x="64.00" y="796.00" width="38.00" height="76.00" fill="#aa6040"/>
<rect x="216.00" y="796.00" width="38.00" height="76.00" fill="#aa6040"/>
<rect x="368.00" y="796.00" width="38.00" height="76.00" fill="#aa6040"/>
<rect x="444.00" y="340.00" width="38.00" height="38.00" fill="#82919a"/>
<rect x="558.00" y="340.00" width="38.00" height="38.00" fill="#82919a"/>
<rect x="444.00" y="644.00" width="38.00" height="38.00" fill="#82919a"/>
<rect x="558.00" y="644.00" width="38.00" height="38.00" fill="#82919a"/>
<rect x="444.00" y="796.00" width="38.00" height="38.00" fill="#82919a"/>
<rect x="558.00" y="796.00" width="38.00" height="38.00" fill="#82919a"/>
<rect x="634.00" y="492.00" width="38.00" height="38.00" fill="#82919a"/>
<rect x="786.00" y="492.00" width="38.00" height="38.00" fill="#82919a"/>
<rect x="634.00" y="796.00" width="38.00" height="38.00" fill="#82919a"/>
<rect x="786.00" y="796.00" width="38.00" height="38.00" fill="#82919a"/>
<rect x="444.00" y="492.00" width="38.00" height="38.00" fill="#aa6040"/>
<rect x="558.00" y="492.00" width="38.00" height="38.00" fill="#aa6040"/>
<rect x="444.00" y="720.00" width="38.00" height="38.00" fill="#aa6040"/>
<rect x="558.00" y="720.00" width="38.00" height="38.00" fill="#aa6040"/>
<rect x="596.00" y="340.00" width="38.00" height="38.00" fill="#aa6040"/>
<rect x="748.00" y="340.00" width="38.00" height="38.00" fill="#aa6040"/>
<rect x="900.00" y="340.00" width="38.00" height="38.00" fill="#aa6040"/>
<rect x="596.00" y="644.00" width="38.00" height="38.00" fill="#aa6040"/>
<rect x="900.00" y="644.00" width="38.00" height="38.00" fill="#aa6040"/>
<rect x="596.00" y="796.00" width="38.00" height="38.00" fill="#aa6040"/>
<rect x="900.00" y="796.00" width="38.00" height="38.00" fill="#aa6040"/>
<rect x="406.00" y="910.00" width="38.00" height="38.00" fill="#82919a"/>
<rect x="596.00" y="910.00" width="38.00" height="38.00" fill="#82919a"/>
<rect x="444.00" y="910.00" width="38.00" height="38.00" fill="#aa6040"/>
<rect x="558.00" y="910.00" width="38.00" height="38.00" fill="#aa6040"/>
<rect x="102.00" y="340.00" width="38.00" height="38.00" rx="2" fill="#c5c5b7"/>
<rect x="140.00" y="378.00" width="38.00" height="38.00" rx="2" fill="#c5c5b7"/>
<rect x="254.00" y="340.00" width="38.00" height="38.00" rx="2" fill="#c5c5b7"/>
<rect x="292.00" y="378.00" width="38.00" height="38.00" rx="2" fill="#c5c5b7"/>
<rect x="406.00" y="340.00" width="38.00" height="38.00" rx="2" fill="#c5c5b7"/>
<rect x="444.00" y="378.00" width="38.00" height="38.00" rx="2" fill="#c5c5b7"/>
<rect x="102.00" y="492.00" width="38.00" height="38.00" rx="2" fill="#c5c5b7"/>
<rect x="140.00" y="530.00" width="38.00" height="38.00" rx="2" fill="#c5c5b7"/>
<rect x="254.00" y="492.00" width="38.00" height="38.00" rx="2" fill="#c5c5b7"/>
<rect x="292.00" y="530.00" width="38.00" height="38.00" rx="2" fill="#c5c5b7"/>
<rect x="406.00" y="492.00" width="38.00" height="38.00" rx="2" fill="#c5c5b7"/>
<rect x="444.00" y="530.00" width="38.00" height="38.00" rx="2" fill="#c5c5b7"/>
<rect x="102.00" y="644.00" width="38.00" height="38.00" rx="2" fill="#c5c5b7"/>
<rect x="140.00" y="682.00" width="38.00" height="38.00" rx="2" fill="#c5c5b7"/>
<rect x="254.00" y="644.00" width="38.00" height="38.00" rx="2" fill="#c5c5b7"/>
<rect x="292.00" y="682.00" width="38.00" height="38.00" rx="2" fill="#c5c5b7"/>
<rect x="406.00" y="644.00" width="38.00" height="38.00" rx="2" fill="#c5c5b7"/>
<rect x="444.00" y="682.00" width="38.00" height="38.00" rx="2" fill="#c5c5b7"/>
<rect x="102.00" y="796.00" width="38.00" height="38.00" rx="2" fill="#c5c5b7"/>
<rect x="140.00" y="834.00" width="38.00" height="38.00" rx="2" fill="#c5c5b7"/>
<rect x="254.00" y="796.00" width="38.00" height="38.00" rx="2" fill="#c5c5b7"/>
<rect x="292.00" y="834.00" width="38.00" height="38.00" rx="2" fill="#c5c5b7"/>
<rect x="406.00" y="796.00" width="38.00" height="38.00" rx="2" fill="#c5c5b7"/>
<rect x="444.00" y="834.00" width="38.00" height="38.00" rx="2" fill="#c5c5b7"/>
<rect x="155.44" y="352.47" width="7.12" height="12.47" rx="2" fill="#c5c5b7"/>
<rect x="307.44" y="504.47" width="7.12" height="12.47" rx="2" fill="#c5c5b7"/>
<rect x="421.44" y="846.47" width="7.12" height="12.47" rx="2" fill="#c5c5b7"/>
<rect x="155.44" y="808.47" width="7.12" height="12.47" rx="2" fill="#c5c5b7"/>
<rect x="307.44" y="352.47" width="7.12" height="12.47" rx="2" fill="#c5c5b7"/>
<rect x="152.47" y="504.47" width="12.47" height="12.47" rx="2" fill="#c5c5b7"/>
<rect x="304.47" y="656.47" width="12.47" height="12.47" rx="2" fill="#c5c5b7"/>
<rect x="418.47" y="542.47" width="12.47" height="12.47" rx="2" fill="#c5c5b7"/>
<rect x="266.47" y="390.47" width="12.47" height="12.47" rx="2" fill="#f0b04c"/>
<rect x="418.47" y="580.47" width="12.47" height="12.47" rx="2" fill="#f0b04c"/>
<rect x="304.47" y="808.47" width="12.47" height="12.47" rx="2" fill="#f0b04c"/>
<rect x="152.47" y="466.47" width="12.47" height="12.47" rx="2" fill="#f0b04c"/>
<rect x="304.47" y="618.47" width="12.47" height="12.47" rx="2" fill="#f0b04c"/>
<rect x="418.47" y="390.47" width="12.47" height="12.47" rx="2" fill="#f0b04c"/>
<rect x="532.47" y="466.47" width="12.47" height="12.47" rx="2" fill="#f0b04c"/>
<rect x="520.00" y="580.47" width="12.47" height="12.47" rx="2" fill="#f0b04c"/>
<rect x="532.47" y="580.47" width="12.47" height="12.47" rx="2" fill="#f0b04c"/>
<rect x="544.94" y="580.47" width="12.47" height="12.47" rx="2" fill="#f0b04c"/>
<rect x="748.00" y="732.47" width="12.47" height="12.47" rx="2" fill="#f0b04c"/>
<rect x="760.47" y="732.47" width="12.47" height="12.47" rx="2" fill="#f0b04c"/>
<rect x="772.94" y="732.47" width="12.47" height="12.47" rx="2" fill="#f0b04c"/>
<rect x="608.47" y="466.47" width="12.47" height="12.47" rx="2" fill="#3f6960"/>
<rect x="722.47" y="352.47" width="12.47" height="12.47" rx="2" fill="#3f6960"/>
<rect x="760.47" y="390.47" width="12.47" height="12.47" rx="2" fill="#3f6960"/>
<rect x="722.47" y="466.47" width="12.47" height="12.47" rx="2" fill="#3f6960"/>
<rect x="874.47" y="352.47" width="12.47" height="12.47" rx="2" fill="#3f6960"/>
<rect x="912.47" y="390.47" width="12.47" height="12.47" rx="2" fill="#3f6960"/>
<rect x="874.47" y="466.47" width="12.47" height="12.47" rx="2" fill="#3f6960"/>
<rect x="608.47" y="504.47" width="12.47" height="12.47" rx="2" fill="#3f6960"/>
<rect x="646.47" y="542.47" width="12.47" height="12.47" rx="2" fill="#3f6960"/>
<rect x="608.47" y="618.47" width="12.47" height="12.47" rx="2" fill="#3f6960"/>
<rect x="722.47" y="504.47" width="12.47" height="12.47" rx="2" fill="#3f6960"/>
<rect x="722.47" y="618.47" width="12.47" height="12.47" rx="2" fill="#3f6960"/>
<rect x="874.47" y="504.47" width="12.47" height="12.47" rx="2" fill="#3f6960"/>
<rect x="912.47" y="542.47" width="12.47" height="12.47" rx="2" fill="#3f6960"/>
<rect x="874.47" y="618.47" width="12.47" height="12.47" rx="2" fill="#3f6960"/>
<rect x="646.47" y="694.47" width="12.47" height="12.47" rx="2" fill="#3f6960"/>
<rect x="608.47" y="770.47" width="12.47" height="12.47" rx="2" fill="#3f6960"/>
<rect x="722.47" y="656.47" width="12.47" height="12.47" rx="2" fill="#3f6960"/>
<rect x="760.47" y="694.47" width="12.47" height="12.47" rx="2" fill="#3f6960"/>
<rect x="722.47" y="770.47" width="12.47" height="12.47" rx="2" fill="#3f6960"/>
<rect x="874.47" y="656.47" width="12.47" height="12.47" rx="2" fill="#3f6960"/>
<rect x="874.47" y="770.47" width="12.47" height="12.47" rx="2" fill="#3f6960"/>
<rect x="722.47" y="808.47" width="12.47" height="12.47" rx="2" fill="#3f6960"/>
<rect x="722.47" y="922.47" width="12.47" height="12.47" rx="2" fill="#3f6960"/>
<rect x="874.47" y="808.47" width="12.47" height="12.47" rx="2" fill="#3f6960"/>
<rect x="912.47" y="846.47" width="12.47" height="12.47" rx="2" fill="#3f6960"/>
<rect x="874.47" y="922.47" width="12.47" height="12.47" rx="2" fill="#3f6960"/>
<rect x="646.47" y="390.47" width="12.47" height="12.47" rx="2" fill="#79bd80"/>
<rect x="760.47" y="542.47" width="12.47" height="12.47" rx="2" fill="#79bd80"/>
<rect x="912.47" y="694.47" width="12.47" height="12.47" rx="2" fill="#79bd80"/>
<rect x="646.47" y="846.47" width="12.47" height="12.47" rx="2" fill="#79bd80"/>
<rect x="760.47" y="846.47" width="12.47" height="12.47" rx="2" fill="#79bd80"/>
<rect x="684.47" y="504.47" width="12.47" height="12.47" rx="2" fill="#79bd80"/>
<rect x="836.47" y="694.47" width="12.47" height="12.47" rx="2" fill="#79bd80"/>
<rect x="912.47" y="884.47" width="12.47" height="12.47" rx="2" fill="#79bd80"/>
<circle cx="197.0" cy="131.0" r="7" fill="#f06b62" stroke="white" stroke-width="2"/>
<circle cx="501.0" cy="131.0" r="7" fill="#f06b62" stroke="white" stroke-width="2"/>
<circle cx="843.0" cy="131.0" r="7" fill="#f06b62" stroke="white" stroke-width="2"/>
<circle cx="197.0" cy="435.0" r="7" fill="#f06b62" stroke="white" stroke-width="2"/>
<circle cx="843.0" cy="435.0" r="7" fill="#f06b62" stroke="white" stroke-width="2"/>
<circle cx="273.0" cy="701.0" r="10" fill="none" stroke="#ffe592" stroke-width="2" stroke-dasharray="3 2"/>
<circle cx="767.0" cy="663.0" r="10" fill="none" stroke="#ffe592" stroke-width="2" stroke-dasharray="3 2"/>
<circle cx="425.0" cy="967.0" r="8" fill="#4db8f9" stroke="white" stroke-width="2"/>
<rect x="501.0" y="957.5" width="38" height="38" fill="#ffe592"/>
<text x="140" y="226" fill="white" stroke="#102028" stroke-width="3" paint-order="stroke" font-family="Arial" font-size="16" font-weight="bold">CITY</text>
<text x="710" y="226" fill="white" stroke="#102028" stroke-width="3" paint-order="stroke" font-family="Arial" font-size="16" font-weight="bold">FOREST</text>
<text x="444" y="226" fill="white" stroke="#102028" stroke-width="3" paint-order="stroke" font-family="Arial" font-size="16" font-weight="bold">TRANSITION</text>
<text x="558" y="948" fill="white" stroke="#102028" stroke-width="3" paint-order="stroke" font-family="Arial" font-size="16" font-weight="bold">EAGLE</text>
<rect x="1010" y="142" width="21" height="21" rx="3" fill="#aa6040"/><text x="1042" y="158" fill="#e0e8e3" font-family="Arial" font-size="14">Brick</text>
<rect x="1010" y="182" width="21" height="21" rx="3" fill="#82919a"/><text x="1042" y="198" fill="#e0e8e3" font-family="Arial" font-size="14">Steel</text>
<rect x="1010" y="222" width="21" height="21" rx="3" fill="#c5c5b7"/><text x="1042" y="238" fill="#e0e8e3" font-family="Arial" font-size="14">Building / solid</text>
<rect x="1010" y="262" width="21" height="21" rx="3" fill="#f0b04c"/><text x="1042" y="278" fill="#e0e8e3" font-family="Arial" font-size="14">Breakable</text>
<rect x="1010" y="302" width="21" height="21" rx="3" fill="#79bd80"/><text x="1042" y="318" fill="#e0e8e3" font-family="Arial" font-size="14">Passable foliage</text>
<rect x="1010" y="342" width="21" height="21" rx="3" fill="#f06b62"/><text x="1042" y="358" fill="#e0e8e3" font-family="Arial" font-size="14">Enemy spawn</text>
<rect x="1010" y="382" width="21" height="21" rx="3" fill="#4db8f9"/><text x="1042" y="398" fill="#e0e8e3" font-family="Arial" font-size="14">Player spawn</text>
<rect x="1010" y="422" width="21" height="21" rx="3" fill="#ffe592"/><text x="1042" y="438" fill="#e0e8e3" font-family="Arial" font-size="14">Eagle</text>
<text x="1010" y="522" fill="#aec7c1" font-family="Arial" font-size="13">Gold rings mark future</text>
<text x="1010" y="543" fill="#aec7c1" font-family="Arial" font-size="13">flag clearings.</text>
</svg>